<svg width="600" height="196" viewBox="0 0 600 196" fill="none" xmlns="http://www.w3.org/2000/svg">
<path d="M598.327 151.633C594.769 144.359 589.044 138.329 582.108 133.281C578.958 130.988 575.48 129.216 571.802 127.819C566.311 113.344 556.499 100.715 543.063 90.4052C535.632 84.7023 526.724 80.2028 517.514 77.027C508.793 74.0251 499.697 72.0796 491.089 68.7969C491.056 68.7768 491.029 68.7568 490.996 68.7367C490.013 68.135 488.983 67.6001 488.026 66.9717C487.712 66.7577 487.391 66.5438 487.077 66.3231C486.843 66.1493 486.662 66.0156 486.508 65.9019C485.973 65.3337 485.465 64.7319 485.331 64.5915C483.993 63.1675 482.776 61.6632 481.606 60.1388C481.425 59.9048 481.051 59.4168 480.716 58.9822C479.392 57.1904 478.148 55.3585 476.817 53.5801C471.553 46.5266 464.785 40.2353 456.813 35.3948C441.296 25.9746 422.175 21.7693 403.428 21.0405C386.674 20.392 369.92 21.8762 353.414 24.3834C352.284 22.9326 351.04 21.5286 349.655 20.1781C343.536 14.2077 336.513 10.0291 328.374 6.40539C312.656 -0.594596 293.776 -0.935569 276.627 1.0501C248.263 4.33949 208.776 12.5429 201.954 40.3156C192.531 39.2325 182.906 39.3662 173.463 40.8036C161.765 42.582 150.503 46.2525 140.457 51.7014C134.739 54.7969 128.338 58.3337 124.265 63.0939C121.409 66.4368 119.189 70.5084 118.299 74.7205C118.072 74.8475 117.844 74.9745 117.617 75.1015C109.838 74.4597 101.926 74.4931 93.9074 75.2018C82.9656 76.178 72.1107 78.752 61.9113 82.2687C57.5774 83.7596 53.3639 85.5113 49.3176 87.5237C48.2675 88.0452 47.2376 88.58 46.2143 89.1349C46.1942 89.1483 45.0839 89.7433 44.0005 90.325C43.0039 90.8599 40.7366 92.0767 39.7334 92.6383C37.7069 93.7749 35.7272 94.9716 33.8077 96.2352C25.267 101.865 17.4218 108.865 11.3824 116.547C1.23646 129.45 -3.32484 144.226 2.70118 159.289C5.31624 165.821 10.5263 171.209 16.4787 175.669C23.0197 180.569 31.3331 182.809 39.6733 184.16C42.5893 184.634 45.5521 184.848 48.5016 185.096C49.8659 185.209 51.237 185.316 52.5947 185.463C53.1833 185.524 53.7651 185.604 54.3537 185.684C55.3302 186.038 57.3567 186.566 58.0857 186.76C58.5138 186.974 58.8481 187.135 58.7812 187.101C62.647 189.074 66.6198 191.213 70.8868 192.49C84.9587 196.702 100.482 195.438 115.115 195.405C129.194 195.372 143.266 195.311 157.344 195.225C185.756 195.044 214.167 194.743 242.571 194.329C299.073 193.506 355.561 193.319 412.056 192.035C441.437 191.367 470.811 190.558 500.185 189.655C525.252 188.88 551.356 189.542 575.006 181.191C581.359 178.945 587.385 175.762 592.849 172.192C600.053 167.492 601.684 158.5 598.327 151.633Z" fill="#94A5C5"/>
</svg>
